<?xml version="1.0" standalone="no"?>
<!DOCTYPE svg PUBLIC "-//W3C//DTD SVG 20010904//EN"
 "http://www.w3.org/TR/2001/REC-SVG-20010904/DTD/svg10.dtd">
<svg version="1.0" xmlns="http://www.w3.org/2000/svg"
 width="1650.000000pt" height="787.000000pt" viewBox="0 0 1650.000000 787.000000"
 preserveAspectRatio="xMidYMid meet">
<metadata>
Created by potrace 1.15, written by Peter Selinger 2001-2017
</metadata>
<g transform="translate(0.000000,787.000000) scale(0.100000,-0.100000)"
fill="#000000" stroke="none">
<path d="M9771 7688 c-25 -9 -75 -94 -67 -114 3 -8 2 -13 -3 -10 -11 7 -24
-41 -15 -56 4 -6 3 -8 -3 -5 -12 8 -37 -59 -27 -74 4 -7 3 -9 -2 -6 -13 8 -68
-119 -58 -134 4 -7 3 -9 -3 -6 -13 8 -26 -20 -16 -35 3 -6 2 -8 -4 -5 -13 8
-116 -179 -107 -194 5 -8 3 -9 -6 -4 -10 6 -12 4 -7 -9 4 -9 3 -15 -2 -12 -13
8 -64 -82 -55 -96 4 -6 3 -8 -3 -5 -14 9 -56 -61 -47 -75 4 -6 2 -8 -3 -5 -14
9 -46 -40 -37 -55 4 -6 3 -8 -3 -5 -14 9 -46 -40 -37 -55 4 -6 3 -8 -3 -5 -14
9 -46 -40 -37 -55 4 -7 3 -8 -4 -4 -13 8 -35 -28 -24 -39 4 -5 2 -5 -4 -2 -15
8 -47 -40 -38 -55 4 -6 3 -8 -4 -4 -13 8 -44 -22 -36 -35 3 -5 1 -8 -4 -7 -6
2 -28 -21 -50 -50 l-40 -53 -3 90 c-3 74 -8 94 -24 110 -24 24 -164 51 -261
51 l-64 0 0 49 c0 43 -4 52 -34 79 -38 33 -59 36 -321 48 -147 6 -330 -10
-445 -41 -30 -8 -65 -15 -77 -15 -25 0 -150 -37 -173 -51 -8 -5 -42 -23 -75
-40 -33 -17 -91 -52 -129 -76 -38 -25 -79 -48 -90 -53 -33 -12 -185 -149 -261
-236 -38 -43 -73 -81 -76 -84 -28 -23 -199 -321 -218 -380 -6 -20 -43 -68 -86
-112 l-75 -77 0 -86 c0 -75 3 -89 20 -103 20 -17 19 -18 -35 -77 l-55 -60 0
-105 c0 -58 5 -112 10 -120 5 -8 10 -12 10 -7 0 4 9 -2 20 -13 15 -15 33 -20
70 -20 47 0 50 -1 48 -25 -1 -13 -4 -22 -7 -20 -2 3 -15 -11 -28 -30 -13 -19
-28 -35 -33 -35 -6 0 -10 -57 -10 -142 0 -78 3 -139 6 -135 3 3 14 -3 25 -14
10 -10 28 -19 38 -19 46 0 51 -9 51 -87 0 -41 5 -83 10 -94 18 -33 60 -46 132
-43 82 4 93 -6 84 -74 -4 -26 -7 -52 -8 -59 -1 -6 -8 -9 -16 -5 -10 3 -13 1
-8 -6 4 -7 1 -12 -8 -12 -9 0 -16 -5 -16 -11 0 -5 5 -7 12 -3 7 4 8 3 4 -4 -4
-6 -14 -8 -23 -5 -10 4 -14 2 -10 -4 4 -6 -3 -13 -14 -16 -12 -3 -18 -10 -14
-17 4 -6 1 -9 -7 -8 -7 2 -12 -3 -11 -9 2 -7 -3 -12 -10 -10 -6 1 -11 -3 -10
-10 2 -8 -4 -10 -14 -6 -11 4 -14 3 -9 -5 4 -7 1 -12 -8 -12 -9 0 -16 -5 -16
-11 0 -5 5 -7 12 -3 7 4 8 3 4 -4 -4 -6 -14 -8 -23 -5 -11 4 -14 3 -9 -5 4 -7
1 -12 -8 -12 -9 0 -16 -5 -16 -11 0 -5 5 -7 12 -3 7 4 8 3 4 -4 -4 -6 -14 -8
-23 -5 -11 4 -14 3 -9 -5 4 -7 1 -12 -8 -12 -9 0 -16 -5 -16 -11 0 -5 5 -7 12
-3 7 4 8 3 4 -4 -4 -6 -14 -8 -23 -5 -11 4 -14 3 -9 -5 4 -7 1 -12 -8 -12 -9
0 -16 -5 -16 -11 0 -5 5 -7 12 -3 7 4 8 3 4 -4 -4 -6 -14 -8 -23 -5 -11 4 -14
3 -9 -5 4 -7 1 -12 -8 -12 -9 0 -16 -5 -16 -11 0 -5 5 -7 12 -3 7 4 8 3 4 -4
-4 -6 -14 -8 -23 -5 -11 4 -14 3 -9 -5 4 -7 1 -12 -8 -12 -9 0 -16 -5 -16 -11
0 -5 5 -7 12 -3 7 4 8 3 4 -5 -6 -9 -11 -9 -21 -1 -9 8 -14 6 -19 -5 -4 -11
-2 -14 6 -9 7 4 8 3 4 -4 -4 -6 -14 -8 -23 -5 -11 4 -14 3 -9 -5 4 -7 1 -12
-7 -12 -17 0 -30 -27 -20 -42 4 -7 1 -8 -7 -3 -10 6 -12 4 -7 -8 4 -12 2 -14
-10 -10 -10 4 -14 2 -10 -4 4 -6 0 -14 -9 -17 -8 -3 -12 -11 -9 -16 4 -6 1 -9
-7 -8 -7 2 -12 -3 -11 -9 2 -7 -3 -12 -10 -10 -6 1 -11 -4 -10 -10 2 -7 -3
-12 -10 -10 -6 1 -11 -4 -10 -10 2 -7 -3 -12 -10 -10 -6 1 -11 -4 -10 -10 2
-7 -3 -12 -10 -10 -6 1 -11 -4 -10 -10 2 -7 -3 -12 -10 -10 -6 1 -11 -4 -10
-10 2 -7 -3 -12 -10 -10 -6 1 -11 -4 -10 -10 2 -7 -3 -12 -10 -10 -6 1 -11 -4
-10 -10 2 -7 -3 -12 -10 -10 -6 1 -11 -4 -9 -11 1 -8 -2 -11 -7 -7 -12 7 -33
-29 -23 -39 3 -4 -2 -4 -12 0 -13 5 -17 4 -13 -3 4 -6 0 -14 -9 -17 -8 -3 -12
-11 -9 -16 4 -6 1 -9 -7 -8 -7 2 -12 -3 -11 -9 2 -7 -3 -12 -10 -10 -6 1 -11
-3 -10 -8 1 -6 -7 -12 -18 -12 -27 -2 -51 -22 -42 -36 3 -6 1 -7 -5 -3 -12 7
-35 -28 -24 -38 3 -4 -2 -4 -12 0 -13 5 -17 4 -13 -3 4 -6 0 -14 -9 -17 -8 -3
-12 -11 -9 -16 4 -6 1 -9 -7 -8 -7 2 -12 -3 -10 -10 1 -8 -2 -11 -7 -7 -12 7
-33 -29 -23 -39 3 -4 -2 -4 -12 0 -14 5 -17 4 -12 -4 4 -7 2 -12 -4 -12 -6 0
-8 -4 -5 -10 3 -5 1 -10 -5 -10 -7 0 -10 -7 -7 -14 4 -11 1 -13 -10 -9 -10 4
-14 2 -10 -4 4 -6 0 -14 -9 -17 -8 -3 -12 -11 -8 -17 4 -7 3 -9 -3 -6 -6 4
-18 -5 -27 -18 -10 -16 -22 -23 -29 -18 -8 5 -8 2 1 -9 10 -13 10 -18 1 -24
-8 -4 -9 -3 -5 4 4 7 3 12 -3 12 -5 0 -11 -19 -13 -42 l-3 -43 -40 5 c-22 3
-116 5 -210 5 -164 0 -250 -8 -241 -23 2 -4 -6 -8 -17 -8 -12 -1 -63 -6 -114
-11 -50 -5 -90 -6 -88 -2 3 3 -37 9 -87 13 -123 8 -160 8 -154 -3 3 -5 -13 -5
-37 1 -23 5 -56 8 -74 6 -17 -2 -30 -1 -27 3 5 9 -94 21 -108 13 -6 -4 -8 -3
-5 3 9 15 -51 23 -169 23 -115 0 -167 -7 -157 -23 4 -6 1 -7 -6 -3 -14 9 -84
-2 -77 -12 2 -4 -21 -8 -51 -10 -30 -2 -66 -7 -79 -12 -18 -7 -23 -7 -18 1 5
8 -6 10 -34 7 -22 -2 -38 0 -35 5 3 5 -24 7 -60 5 -36 -1 -63 1 -60 6 7 11
-217 -2 -275 -16 -55 -13 -327 5 -346 23 -12 11 -129 12 -123 2 3 -5 -26 -6
-65 -5 -48 3 -68 0 -64 -7 4 -7 1 -8 -9 -5 -19 8 -68 -4 -61 -14 3 -5 -30 -7
-72 -6 -100 3 -122 6 -115 18 4 5 -3 7 -15 4 -12 -4 -20 -2 -17 2 7 11 -51 23
-66 14 -7 -4 -9 -3 -6 4 23 36 -403 43 -535 8 -41 -11 -65 -22 -61 -29 3 -6 1
-7 -5 -3 -13 8 -94 -23 -87 -34 3 -5 -3 -6 -14 -3 -20 5 -125 -63 -116 -76 2
-4 -6 -7 -18 -6 -12 1 -28 -3 -36 -9 -12 -9 -13 -8 -6 3 6 11 2 13 -18 9 -15
-3 -24 -2 -22 2 3 4 -8 13 -23 18 -68 27 -176 35 -557 41 l-400 6 -3 113 c-2
84 1 113 10 117 7 2 197 6 423 9 430 5 455 6 455 17 0 4 8 6 17 4 10 -1 24 3
32 9 11 8 13 8 8 -1 -5 -7 4 -6 23 3 34 18 64 67 57 95 -3 11 -1 17 3 14 21
-13 25 379 5 455 -4 14 -7 31 -7 38 -1 6 -5 12 -10 12 -4 0 -7 3 -6 8 1 4 -2
18 -6 30 -6 17 -13 22 -27 19 -10 -3 -17 -2 -14 3 18 29 -192 39 -895 41 -491
2 -644 0 -673 -10 -22 -7 -34 -17 -31 -23 5 -7 2 -8 -5 -4 -16 10 -53 -23 -47
-41 3 -7 0 -12 -6 -10 -30 6 -32 -68 -36 -1313 -3 -1200 0 -1426 18 -1415 4 3
6 -4 3 -14 -6 -22 25 -74 38 -65 5 3 8 2 7 -3 -2 -4 1 -9 6 -10 5 -1 12 -6 16
-12 3 -6 16 -14 28 -16 12 -3 30 -7 41 -9 86 -20 406 -24 429 -6 1 2 5 3 10 4
4 1 13 5 21 10 9 6 12 5 7 -2 -3 -6 7 -4 24 4 34 18 64 67 57 95 -3 11 -1 17
4 13 5 -3 10 -4 11 -2 1 2 4 246 7 543 l6 540 344 0 344 0 2 -190 c2 -104 5
-199 8 -210 3 -11 6 -33 6 -48 1 -16 5 -26 11 -22 6 3 7 -1 4 -9 -8 -20 15
-118 26 -111 4 3 8 -1 7 -8 -1 -36 4 -57 13 -52 5 3 7 0 4 -9 -3 -8 2 -26 11
-40 9 -14 23 -45 30 -68 7 -24 18 -42 25 -40 6 1 9 -2 5 -8 -9 -15 23 -62 37
-54 7 4 8 3 4 -5 -10 -15 13 -43 27 -34 6 3 7 1 3 -6 -10 -15 21 -64 35 -56 5
4 8 1 7 -7 -2 -7 3 -12 10 -10 6 1 11 -4 10 -10 -2 -7 3 -12 10 -10 6 1 11 -4
10 -10 -2 -7 3 -12 10 -10 8 1 11 -2 8 -6 -3 -5 4 -18 17 -28 21 -19 21 -19 7
1 -9 13 -10 16 -1 8 7 -6 19 -22 25 -35 6 -12 17 -23 23 -23 7 0 19 -9 28 -20
9 -11 14 -13 10 -5 -4 10 -2 9 8 -2 8 -10 17 -15 20 -11 4 3 7 -1 7 -11 0 -9
4 -14 10 -11 5 3 10 1 10 -5 0 -6 5 -8 10 -5 6 3 10 1 10 -6 0 -7 3 -9 7 -6 3
4 17 0 30 -8 13 -9 23 -13 23 -10 0 3 10 0 22 -7 13 -7 30 -13 38 -14 8 0 24
-4 34 -9 10 -5 31 -9 45 -11 14 -1 26 -3 26 -4 0 -15 357 -21 425 -7 60 12
114 25 118 27 1 2 7 4 12 5 6 1 12 4 15 5 3 1 8 3 13 4 4 1 17 7 28 14 12 6
24 8 28 5 3 -3 6 -2 6 4 0 9 25 9 108 1 6 -1 12 -4 12 -8 0 -4 6 -7 13 -8 6 0
21 -3 33 -5 92 -22 312 -30 399 -14 33 6 198 11 215 7 73 -19 424 -19 448 0 1
2 5 3 10 4 4 1 13 5 21 10 9 6 12 5 7 -2 -3 -6 7 -4 24 4 37 19 63 67 58 105
-3 15 -1 26 4 23 4 -3 8 -4 9 -2 1 2 4 221 8 488 l6 485 25 50 c14 28 23 55
21 60 -1 6 0 7 3 4 4 -3 25 13 49 36 49 50 98 66 202 69 l70 1 6 -565 c6 -556
9 -621 32 -649 9 -11 9 -13 0 -8 -9 6 -10 0 -3 -20 14 -49 22 -63 31 -57 5 3
9 -1 9 -8 0 -7 9 -19 21 -26 17 -11 20 -11 13 0 -6 10 -4 10 9 -1 9 -7 17 -10
17 -6 0 4 6 3 13 -2 6 -5 26 -11 42 -13 43 -7 333 -5 380 2 22 4 46 7 53 7 7
1 10 5 7 11 -4 6 1 7 11 3 12 -4 15 -3 10 5 -4 8 -2 10 7 6 8 -3 18 0 22 5 3
6 10 9 14 7 3 -3 7 3 8 12 1 9 9 44 18 77 14 51 18 138 24 560 l7 500 27 55
c35 72 65 106 101 112 34 7 82 -8 84 -25 1 -7 6 -37 11 -67 6 -30 12 -282 14
-560 4 -437 6 -521 17 -550 1 -3 1 -16 0 -28 -2 -30 20 -83 31 -76 5 3 9 -1 9
-9 0 -13 18 -23 55 -32 6 -2 12 -4 15 -5 3 -1 18 -4 34 -6 16 -3 37 -9 46 -14
26 -14 349 -4 368 10 1 2 5 3 10 4 4 1 13 5 21 10 9 6 12 5 7 -2 -3 -6 7 -4
24 4 16 9 33 20 36 26 5 7 2 8 -7 4 -8 -4 -6 -1 3 7 10 8 15 17 11 20 -3 4 -1
7 4 7 6 0 10 11 9 25 -2 13 0 22 4 20 17 -10 22 94 29 545 6 423 9 480 25 525
10 28 27 62 37 76 10 14 16 29 14 33 -3 3 -3 4 0 2 3 -2 19 9 35 25 33 34 68
37 101 10 27 -22 24 41 33 -766 4 -373 4 -389 20 -414 6 -9 5 -12 -2 -7 -7 4
-9 -5 -5 -31 7 -47 21 -75 33 -68 6 4 7 -1 3 -11 -4 -11 -2 -15 4 -11 6 4 14
0 17 -9 3 -9 12 -14 20 -11 7 3 19 0 26 -6 10 -9 11 -9 5 3 -8 13 -7 13 8 1
25 -20 61 -23 257 -25 193 -2 223 1 213 18 -3 6 -3 8 2 4 4 -4 15 -2 23 5 13
10 14 9 8 -1 -7 -11 -4 -12 11 -4 25 14 43 35 47 58 3 11 8 30 14 44 5 14 12
42 16 63 l7 37 -171 0 -170 0 0 445 0 445 181 0 182 0 -7 -100 c-4 -55 -4
-233 0 -395 l7 -294 44 -51 c25 -27 49 -48 54 -44 5 3 8 0 7 -8 -2 -7 3 -12
10 -10 6 1 11 -4 10 -10 -2 -7 3 -12 10 -10 6 1 11 -4 10 -10 -2 -7 3 -12 10
-10 8 1 11 -2 8 -7 -8 -12 34 -42 46 -35 5 3 7 2 6 -3 -2 -4 2 -10 7 -12 6 -2
15 -11 22 -20 7 -9 13 -12 13 -7 0 5 9 1 20 -9 11 -10 20 -15 20 -11 0 4 7 0
16 -8 8 -9 19 -14 24 -11 4 3 13 -2 20 -10 7 -8 16 -12 21 -9 5 3 9 0 9 -7 0
-7 3 -9 7 -6 3 4 12 2 20 -4 7 -6 13 -9 13 -5 0 4 13 0 30 -9 16 -9 30 -13 30
-10 0 3 9 1 20 -5 12 -6 35 -13 53 -15 18 -3 50 -8 72 -12 47 -9 333 -10 452
-1 45 4 91 12 102 18 12 6 21 9 21 6 0 -3 16 2 35 10 19 8 35 12 35 9 0 -3 11
2 25 11 14 9 25 13 25 10 0 -4 11 1 25 10 14 9 25 13 25 9 0 -5 9 0 20 10 11
10 20 14 20 9 0 -5 7 0 15 10 8 11 15 16 15 12 0 -10 81 47 125 88 20 19 39
36 43 38 4 2 6 6 4 11 -1 4 4 6 10 5 7 -2 12 3 10 10 -1 8 2 11 8 7 5 -3 10
-1 10 4 0 21 20 10 26 -14 3 -14 9 -23 13 -21 3 2 7 -21 8 -51 2 -63 27 -120
63 -142 21 -14 23 -14 15 -1 -5 9 1 7 15 -5 14 -12 20 -14 15 -5 -8 13 -6 13
8 1 9 -7 36 -16 59 -19 87 -11 349 -6 366 8 2 2 14 4 53 9 5 0 8 5 5 10 -3 4
4 8 17 7 13 -1 21 4 19 12 -1 8 2 11 7 7 13 -8 34 32 27 51 -3 8 -2 13 3 10 9
-6 21 49 21 97 l0 27 -125 0 -125 0 0 445 0 445 179 0 179 0 4 75 c3 60 7 77
23 90 22 17 71 32 130 40 22 3 56 8 75 11 19 3 47 7 63 9 15 1 35 9 44 16 14
12 16 12 8 0 -6 -11 -5 -12 6 -5 8 5 19 9 24 9 6 1 9 7 7 14 -1 7 2 10 7 7 5
-4 14 2 20 11 6 11 11 13 11 5 0 -7 5 -10 12 -6 7 5 8 3 2 -7 -4 -8 -9 -23
-10 -34 -1 -11 -6 -54 -12 -95 -5 -41 -10 -82 -11 -90 -1 -15 -6 -72 -16 -170
-3 -30 -8 -80 -10 -110 -3 -30 -7 -75 -10 -100 -2 -25 -7 -81 -10 -125 -3 -44
-9 -100 -12 -125 -11 -96 -11 -425 1 -439 9 -12 8 -13 -3 -7 -11 7 -12 0 -6
-35 5 -24 7 -59 6 -77 -1 -19 2 -31 6 -29 4 3 8 -18 9 -46 0 -57 5 -85 18
-106 7 -10 5 -12 -4 -6 -9 5 -11 2 -7 -11 3 -11 9 -40 13 -66 3 -26 9 -46 13
-44 3 2 6 -15 7 -37 1 -54 22 -129 34 -122 6 4 6 -3 0 -19 -8 -21 -6 -24 9
-21 10 2 18 -3 18 -10 0 -8 -5 -11 -10 -8 -5 3 7 -20 26 -50 25 -39 31 -54 19
-50 -14 6 -15 5 -2 -9 8 -9 19 -13 24 -10 5 3 6 0 2 -7 -9 -14 12 -43 25 -35
5 3 6 -1 3 -9 -3 -8 3 -20 13 -28 17 -13 17 -13 3 6 -14 18 -14 19 2 7 10 -8
16 -19 15 -25 -1 -7 3 -11 10 -10 8 2 10 -4 6 -14 -4 -10 -2 -14 4 -10 6 4 13
-3 16 -15 5 -18 8 -19 22 -8 13 11 15 10 9 -3 -4 -12 -1 -15 15 -12 12 2 20
-1 18 -8 -1 -7 8 -11 20 -11 12 1 21 -3 20 -9 -1 -5 4 -12 12 -15 9 -3 11 0 6
9 -5 8 2 5 15 -6 14 -12 20 -14 15 -5 -8 13 -7 13 8 1 9 -7 17 -10 17 -6 0 4
7 2 15 -5 8 -7 12 -17 8 -23 -4 -6 -1 -7 8 -1 8 5 86 10 174 11 173 2 203 4
223 16 6 5 12 5 12 1 0 -3 8 0 17 7 11 9 14 10 9 2 -5 -9 -2 -11 8 -7 9 3 13
11 9 18 -3 6 -3 8 2 4 4 -4 15 -2 23 5 13 10 14 9 7 -3 -4 -8 4 -4 20 10 16
14 25 19 21 13 -4 -8 -2 -13 6 -13 17 1 53 28 53 40 0 6 5 10 10 11 20 2 45
20 40 28 -2 5 3 15 13 22 16 13 16 13 2 -6 -14 -19 -14 -19 3 -6 10 8 16 20
13 27 -3 9 1 11 12 7 15 -6 15 -5 3 11 -12 15 -12 17 0 14 8 -2 13 2 12 9 -2
7 6 10 17 8 12 -2 18 0 15 5 -8 13 30 81 41 72 4 -4 2 2 -6 12 -13 17 -13 18
-1 11 11 -6 13 -4 8 8 -4 12 -2 14 11 10 15 -6 16 -5 2 12 -12 15 -12 17 -1
10 11 -6 13 -4 8 9 -5 11 -3 15 5 10 8 -5 9 -2 5 10 -5 11 -3 15 5 10 7 -5 9
-2 5 9 -4 10 -2 14 7 11 9 -3 12 5 11 30 0 19 3 32 7 30 10 -6 22 42 13 55 -3
6 0 8 8 5 9 -3 14 0 14 8 -1 7 8 56 20 108 13 52 28 127 34 165 16 96 33 124
73 118 17 -2 104 -5 193 -6 89 -1 165 -5 168 -9 4 -4 17 -3 29 1 11 5 29 7 38
6 10 -2 20 1 23 5 3 5 14 7 25 5 11 -2 20 1 20 7 0 6 3 8 7 5 3 -4 13 -1 21 6
13 10 14 9 7 -2 -6 -11 -5 -12 6 -5 16 10 159 13 159 3 0 -4 13 -5 30 -4 16 1
28 0 26 -4 -6 -9 366 -7 381 2 6 4 14 3 18 -2 3 -6 12 -8 20 -5 8 4 13 10 10
15 -3 4 4 6 16 4 16 -3 19 0 15 12 -6 14 -4 14 11 2 15 -12 16 -12 11 2 -4 9
-1 16 8 16 7 0 10 -5 7 -11 -4 -6 3 -3 15 8 12 10 19 23 15 29 -3 6 -1 7 5 3
7 -4 13 -2 13 3 1 6 2 15 3 20 0 5 5 13 10 18 5 5 6 3 2 -4 -4 -7 -5 -13 -2
-13 12 0 57 104 53 121 -3 11 -2 17 3 14 10 -6 23 42 15 55 -3 6 0 7 7 5 13
-5 15 -1 21 59 1 13 5 22 10 19 6 -4 11 20 8 39 0 5 5 7 12 5 6 -1 11 4 9 11
-1 8 2 11 7 8 5 -3 11 0 14 8 4 10 54 15 65 6 1 -1 11 -4 22 -5 11 -1 23 -4
28 -5 4 -1 10 -2 15 -1 4 0 7 -4 7 -10 0 -5 4 -8 9 -5 5 3 12 -1 15 -10 3 -8
10 -13 15 -10 5 3 12 -1 15 -10 3 -8 10 -12 16 -9 6 4 7 -1 3 -11 -4 -12 -3
-15 5 -10 8 5 10 1 5 -10 -4 -12 -3 -15 5 -10 8 5 10 1 5 -10 -4 -12 -3 -15 5
-10 8 4 10 2 6 -8 -6 -17 22 -35 49 -31 9 2 15 0 12 -5 -3 -4 2 -11 11 -14 10
-4 13 -2 9 7 -4 6 0 4 8 -5 8 -10 17 -15 20 -11 4 3 7 1 7 -6 0 -7 5 -9 10 -6
6 4 9 1 8 -6 -2 -7 2 -13 7 -14 21 -1 34 -16 28 -32 -4 -11 -3 -14 5 -9 7 4
10 2 6 -7 -3 -8 3 -20 13 -28 17 -13 17 -13 3 6 -14 18 -14 19 2 7 10 -8 14
-20 11 -29 -4 -11 -2 -14 5 -9 7 4 12 2 12 -4 0 -19 50 -62 65 -56 9 3 12 0 9
-9 -4 -10 0 -13 15 -10 13 2 18 -1 15 -10 -3 -7 0 -16 7 -21 8 -5 10 -3 4 7
-5 8 2 5 15 -6 14 -12 20 -14 15 -5 -7 12 -6 13 7 3 8 -7 19 -9 23 -5 5 4 5 2
2 -4 -4 -7 0 -15 9 -18 10 -4 13 -2 8 7 -6 9 -5 9 8 0 8 -7 18 -10 21 -6 4 3
7 1 7 -5 0 -6 9 -9 20 -7 11 2 20 0 20 -4 0 -5 14 -7 30 -6 17 1 30 0 30 -4 0
-14 325 -19 450 -7 41 4 85 8 98 9 12 0 22 4 22 7 0 5 24 8 93 10 9 1 16 4 13
8 -2 4 16 6 40 5 24 0 47 3 50 8 3 5 10 7 15 4 5 -4 9 -2 9 4 0 5 9 8 20 6 11
-2 20 0 20 5 0 5 6 7 14 4 8 -3 17 0 21 5 3 6 11 9 16 6 5 -4 9 -2 9 4 0 6 7
7 17 4 10 -4 14 -2 10 4 -4 6 1 10 11 10 33 0 43 3 38 12 -3 4 2 8 12 8 34 0
43 3 37 12 -3 6 3 8 15 6 11 -2 22 0 24 4 7 10 67 8 85 -3 11 -7 12 -6 6 5 -7
11 -6 12 7 2 8 -7 19 -9 23 -5 5 4 4 1 0 -7 -6 -11 -4 -13 8 -8 10 4 16 2 14
-6 -1 -7 8 -12 19 -11 13 0 20 -4 17 -12 -2 -6 1 -15 8 -20 8 -5 10 -3 5 7 -4
8 -1 6 8 -5 8 -10 22 -16 30 -13 9 4 15 1 13 -6 -1 -7 8 -11 20 -11 13 1 20
-2 18 -6 -3 -4 2 -11 11 -14 10 -4 13 -2 8 7 -6 9 -5 9 8 0 8 -7 18 -10 21 -6
4 3 7 1 7 -5 0 -6 9 -9 20 -7 11 2 22 1 24 -3 7 -12 430 -4 444 8 1 1 7 4 12
5 6 1 12 4 15 5 3 1 8 3 13 4 4 1 13 5 21 10 10 6 12 5 7 -2 -5 -8 -2 -10 8
-6 9 3 13 11 9 18 -3 6 -3 8 2 4 4 -4 15 -2 23 5 13 9 14 9 8 0 -5 -9 -2 -11
8 -7 9 3 14 9 11 13 -2 4 2 8 10 8 8 0 15 -5 15 -11 0 -5 7 -1 16 10 8 10 13
13 9 7 -4 -9 -1 -11 9 -7 9 3 13 10 10 15 -3 5 3 6 12 2 12 -4 15 -3 10 5 -5
8 -1 10 10 5 12 -4 15 -3 10 6 -4 6 -4 11 1 10 20 -3 34 2 28 11 -4 6 1 7 11
3 12 -4 15 -3 10 6 -4 6 -4 11 1 10 4 -1 11 0 16 1 4 1 13 3 20 4 6 1 11 7 10
13 -1 6 5 10 15 8 9 -1 20 3 24 9 4 6 13 11 20 11 7 1 12 6 11 12 -1 6 8 10
20 9 12 0 21 4 20 11 -2 8 4 10 14 6 11 -4 14 -3 9 6 -4 6 -4 11 1 10 4 -1 11
0 16 1 4 1 13 3 20 4 6 1 11 7 10 14 -2 7 4 9 14 5 11 -4 14 -3 9 6 -4 6 -4
11 1 10 4 -1 11 0 16 1 4 1 13 3 20 4 6 1 11 7 9 14 -1 7 2 11 7 10 4 -2 17 6
27 17 11 12 15 14 9 5 -9 -13 -8 -13 8 -1 10 8 16 20 13 28 -3 8 -2 11 4 8 33
-20 76 143 85 323 9 177 -17 402 -47 402 -5 0 -6 -6 -2 -12 4 -7 -2 -5 -13 5
-11 9 -23 14 -27 10 -4 -4 -4 1 0 11 6 16 8 17 16 2 5 -9 13 -14 18 -11 14 8
-21 44 -36 38 -8 -3 -12 -8 -10 -12 6 -9 -421 -8 -430 2 -4 4 -16 -1 -27 -10
-12 -10 -17 -12 -12 -4 5 9 3 12 -6 9 -8 -3 -13 -10 -12 -16 1 -5 -7 -18 -19
-28 -12 -11 -18 -13 -13 -5 5 9 3 12 -6 9 -8 -3 -14 -9 -14 -14 0 -20 -16 -32
-35 -27 -12 3 -20 0 -20 -6 0 -7 5 -9 12 -5 7 4 8 3 4 -5 -4 -6 -11 -9 -16 -6
-14 8 -61 -25 -53 -38 3 -6 1 -7 -5 -3 -6 4 -25 0 -42 -9 -30 -15 -30 -15 -40
10 -13 35 -13 172 1 237 6 29 20 65 30 79 10 14 16 29 14 33 -3 3 -2 4 2 1 3
-3 13 1 21 8 10 8 69 13 191 15 165 2 283 7 289 12 1 1 10 3 20 4 9 1 23 5 31
10 10 7 12 6 6 -4 -6 -9 -4 -11 6 -5 7 5 25 10 38 11 14 2 27 8 29 14 2 5 10
10 18 10 13 0 19 13 15 34 -1 5 4 4 12 -2 18 -15 28 -4 56 59 19 39 21 65 21
249 0 180 -3 210 -19 247 -11 23 -16 45 -13 49 4 4 0 3 -8 -2 -21 -12 -41 -14
-34 -3 3 5 10 7 15 4 5 -3 6 1 3 9 -3 9 -11 13 -18 9 -17 -11 -37 -12 -30 -2
3 5 10 7 15 4 5 -4 9 -2 9 3 0 11 -19 18 -95 37 -27 7 -54 11 -59 8 -5 -4 -6
-1 -2 6 4 6 0 14 -8 17 -12 4 -15 18 -13 54 1 26 6 45 11 42 5 -3 7 7 4 21 -3
16 -1 24 5 20 6 -3 8 8 5 30 -2 20 -1 34 3 31 12 -7 22 224 15 340 -4 61 -14
140 -22 176 -8 36 -16 71 -16 78 -1 6 -5 12 -10 12 -5 0 -7 4 -4 8 3 5 -8 37
-24 71 -21 43 -34 60 -42 55 -8 -5 -7 0 2 11 14 17 13 18 -2 12 -10 -3 -20 -1
-24 5 -4 7 -3 8 4 4 7 -4 12 -2 12 3 0 6 -8 11 -17 11 -16 0 -16 2 -3 11 12 9
10 10 -8 6 -20 -5 -21 -3 -10 11 11 13 11 15 -4 9 -10 -3 -20 -1 -24 5 -4 7
-3 8 4 4 7 -4 12 -2 12 5 0 6 -8 9 -20 6 -11 -3 -18 -1 -15 3 8 12 -6 41 -16
34 -5 -3 -9 0 -9 5 0 6 -17 18 -37 28 -30 13 -79 17 -241 21 -214 4 -277 -1
-266 -21 5 -9 4 -9 -6 0 -15 14 -55 -1 -45 -17 3 -5 0 -12 -6 -16 -7 -4 -9 -3
-5 4 3 6 2 13 -4 17 -5 3 -10 1 -10 -5 0 -6 -5 -8 -12 -4 -9 5 -8 2 1 -9 12
-15 12 -17 -3 -11 -11 4 -24 -1 -37 -15 -11 -11 -24 -21 -29 -21 -6 0 -10 -5
-10 -11 0 -8 6 -7 18 2 9 7 -1 -6 -23 -29 -38 -41 -53 -52 -40 -32 3 6 1 10
-6 10 -6 0 -9 -8 -6 -20 3 -11 -2 -25 -11 -32 -12 -10 -14 -10 -8 0 4 6 3 12
-2 12 -6 0 -13 -7 -16 -16 -9 -22 -8 -26 6 -18 7 4 8 3 4 -4 -4 -6 -14 -8 -24
-5 -15 6 -15 5 -3 -10 12 -16 12 -17 -5 -10 -17 6 -17 5 -5 -10 12 -15 12 -17
-4 -11 -13 5 -16 4 -11 -4 4 -7 1 -12 -6 -12 -21 -1 -59 -85 -45 -100 9 -8 7
-9 -8 -4 -18 7 -19 6 -6 -9 12 -16 12 -17 -5 -10 -17 6 -17 5 -5 -10 12 -16
12 -17 -5 -10 -17 6 -17 5 -5 -10 12 -16 12 -17 -5 -10 -17 6 -17 5 -5 -10 12
-16 12 -17 -5 -10 -17 6 -17 5 -5 -10 12 -16 12 -17 -5 -10 -17 6 -17 5 -5
-10 12 -16 12 -17 -5 -10 -16 6 -17 5 -6 -9 10 -13 10 -18 1 -24 -8 -4 -9 -3
-5 4 4 7 2 12 -5 12 -6 0 -9 -8 -6 -20 3 -11 1 -20 -5 -20 -5 0 -6 -4 -3 -10
3 -6 1 -10 -6 -10 -8 0 -7 -5 2 -17 8 -9 9 -14 3 -10 -16 9 -35 -58 -20 -73 8
-8 6 -9 -9 -4 -18 7 -19 6 -5 -11 8 -10 10 -16 4 -12 -16 10 -25 -18 -11 -32
9 -9 7 -10 -8 -5 -18 7 -19 6 -5 -11 8 -10 10 -16 4 -12 -16 10 -25 -18 -11
-32 9 -9 7 -10 -8 -5 -18 7 -19 6 -5 -11 8 -10 10 -16 3 -12 -12 7 -20 -10
-26 -54 -2 -8 -5 -18 -8 -24 -4 -5 -12 -33 -18 -62 -16 -64 -28 -70 -181 -82
-125 -10 -153 -17 -143 -35 4 -7 2 -7 -7 1 -15 14 -55 -1 -45 -17 3 -5 0 -12
-6 -16 -7 -4 -9 -3 -5 4 3 6 2 13 -4 17 -5 3 -10 1 -10 -5 0 -6 -5 -8 -12 -4
-9 6 -9 3 0 -9 12 -14 11 -16 -8 -12 -18 3 -20 2 -10 -10 10 -12 8 -13 -9 -10
-15 3 -19 0 -14 -8 11 -17 12 -57 1 -51 -4 3 -6 10 -3 15 4 5 1 9 -6 9 -6 0
-9 -8 -6 -19 3 -13 -1 -21 -15 -24 -11 -3 -17 -10 -13 -16 4 -7 0 -8 -11 -4
-10 3 -15 2 -12 -3 3 -5 -10 -10 -31 -11 -57 -3 -122 -24 -114 -37 4 -6 -1 -5
-10 3 -15 12 -20 11 -35 -3 -10 -9 -23 -13 -27 -9 -5 5 -4 1 3 -8 11 -14 9
-16 -14 -11 -19 3 -25 1 -20 -7 4 -6 12 -8 18 -5 7 4 8 2 4 -4 -4 -6 -13 -9
-22 -5 -9 3 -14 0 -12 -8 2 -9 -5 -14 -20 -13 -17 1 -20 -1 -11 -12 8 -10 6
-12 -12 -9 -17 4 -20 2 -11 -7 9 -9 6 -19 -15 -40 -15 -15 -32 -28 -39 -28
-12 0 -36 -54 -28 -63 2 -2 -4 -10 -13 -18 -16 -13 -17 -12 -4 3 9 12 10 18 2
18 -10 0 -12 -4 -15 -36 -2 -15 -26 -44 -38 -44 -5 0 -16 -7 -24 -15 -18 -18
-4 -20 16 -2 12 10 12 9 1 -5 -7 -10 -18 -18 -23 -18 -5 0 -16 -7 -24 -15 -18
-18 -4 -20 16 -3 12 11 12 10 1 -4 -7 -10 -20 -18 -27 -18 -8 0 -14 -5 -14
-11 0 -5 6 -7 13 -3 6 4 4 -2 -6 -14 -12 -13 -25 -18 -35 -14 -15 5 -15 4 -3
-11 12 -15 12 -17 -4 -11 -14 6 -16 4 -10 -7 4 -8 5 -11 0 -7 -11 11 -47 -11
-39 -24 4 -7 3 -8 -4 -4 -6 4 -25 0 -41 -9 -17 -8 -32 -15 -34 -15 -13 0 -21
47 -28 160 -4 69 -10 134 -12 145 -3 11 0 26 6 33 7 9 6 11 -7 6 -14 -5 -15
-3 -7 19 9 22 8 25 -6 20 -11 -4 -14 -3 -9 6 13 20 -14 72 -35 69 -10 -2 -18
2 -18 7 0 6 7 9 15 7 12 -2 11 1 -3 16 -19 20 -38 19 -27 -1 4 -7 3 -8 -2 -4
-5 5 -10 13 -10 18 -1 5 -2 14 -3 20 0 5 -6 7 -11 4 -6 -4 -7 -12 -3 -18 4 -7
-1 -5 -12 3 -10 8 -20 14 -22 12 -3 -2 -7 -1 -10 2 -3 3 5 3 17 1 14 -3 20 -1
14 4 -15 16 -49 17 -46 3 1 -8 -2 -11 -8 -7 -6 3 -8 10 -5 14 6 11 -107 19
-384 27 -199 6 -233 5 -226 -7 7 -11 6 -12 -6 -3 -8 6 -53 10 -101 9 -47 0
-86 2 -85 5 1 3 -4 15 -11 28 -9 16 -12 75 -10 216 2 142 0 192 -8 185 -8 -6
-10 -1 -6 17 4 21 2 25 -9 19 -11 -7 -11 -5 1 10 14 17 13 18 -4 12 -17 -7
-17 -6 -5 10 12 15 12 16 -5 10 -17 -7 -17 -6 -5 10 12 15 12 16 -2 11 -9 -4
-16 -1 -16 8 0 7 5 10 11 7 6 -4 5 0 -1 9 -7 8 -9 19 -5 24 4 4 -1 2 -10 -5
-15 -11 -17 -10 -13 9 3 18 2 20 -10 10 -12 -10 -13 -8 -10 10 4 18 2 20 -11
9 -8 -7 -14 -8 -13 -3 5 27 -1 34 -20 25 -14 -8 -23 -6 -37 12 -19 22 -19 22
2 4 11 -9 24 -14 27 -10 12 12 -37 31 -51 20 -7 -6 -12 -6 -10 -1 2 5 -2 9 -7
9 -6 0 -9 -4 -7 -8 1 -5 -2 -6 -8 -2 -6 3 -8 10 -5 15 9 14 -37 21 -219 30
-138 8 -183 13 -196 25 -15 14 -18 41 -22 177 -3 115 -7 163 -16 166 -7 2 -10
8 -6 13 3 5 -9 41 -27 80 -28 60 -36 70 -53 65 -21 -5 -21 -5 -1 11 20 15 20
15 -3 10 -20 -5 -22 -3 -10 11 11 13 11 15 -4 9 -9 -3 -21 0 -26 6 -10 12 -12
18 -12 38 0 5 -5 7 -10 4 -6 -4 -7 -12 -4 -18 4 -7 3 -8 -2 -4 -5 5 -10 13
-10 18 -1 5 -2 14 -3 19 -1 7 -7 7 -20 1 -14 -8 -23 -6 -37 12 l-19 22 22 -18
c12 -10 24 -14 27 -9 5 8 -13 17 -39 21 -3 0 -20 8 -38 18 -27 15 -67 18 -255
21 -228 4 -278 0 -266 -20 4 -7 3 -8 -5 -4 -15 10 -64 -2 -57 -13 3 -4 -5 -6
-18 -4 -13 3 -27 -1 -31 -8 -6 -8 -4 -10 6 -4 8 5 11 4 6 -1 -4 -4 -18 -9 -30
-9 -12 0 -22 -4 -22 -10 -1 -21 -16 -33 -35 -28 -12 3 -20 0 -20 -6 0 -7 5 -9
12 -5 7 4 8 3 4 -5 -4 -6 -12 -9 -17 -5 -14 8 -50 -26 -42 -40 3 -6 2 -8 -2
-3 -5 4 -27 -10 -48 -30 -27 -26 -38 -32 -32 -18 11 29 14 75 5 70 -5 -3 -10
-1 -12 5 -1 5 -14 11 -28 14 -14 2 -26 5 -27 7 -2 1 -7 3 -13 4 -5 1 -12 4
-15 5 -3 1 -9 4 -15 5 -5 1 -12 4 -15 5 -3 1 -9 4 -15 5 -5 1 -12 4 -15 5 -3
1 -8 3 -12 4 -5 1 -32 10 -62 19 -29 9 -83 20 -120 23 -36 4 -69 11 -72 16 -3
5 -7 37 -8 71 -2 90 -20 250 -38 342 -33 175 -126 495 -143 495 -5 0 -46 -12
-92 -26 -102 -32 -212 -82 -272 -124 -33 -22 -47 -27 -50 -18 -3 7 -23 76 -46
153 -52 174 -97 293 -155 403 l-44 86 37 49 c20 27 36 53 34 58 -1 5 4 8 10 7
7 -2 12 3 10 10 -1 8 2 11 7 8 15 -9 185 226 173 239 -4 5 -2 6 3 3 11 -7 118
147 118 169 0 7 3 11 5 8 9 -8 41 48 35 59 -3 6 -2 8 2 3 11 -9 66 83 58 98
-4 5 -3 7 2 3 11 -10 48 39 39 53 -4 7 -3 9 3 6 14 -9 160 280 227 450 l56
142 0 233 c0 238 -8 301 -38 316 -9 5 -85 8 -169 7 -83 0 -150 2 -148 5 5 8
-182 6 -204 -2z m298 -149 c17 -6 31 -12 31 -13 0 -1 -15 -47 -34 -102 -120
-355 -337 -743 -646 -1152 -338 -450 -768 -914 -1530 -1654 -855 -830 -1356
-1338 -1645 -1669 -60 -68 -111 -125 -114 -126 -3 -1 -22 10 -41 26 l-34 29
59 68 c304 352 669 729 1251 1294 1051 1020 1381 1360 1745 1796 423 507 715
985 855 1397 42 125 43 127 103 106z m-1819 -784 c25 -23 29 -24 81 -15 30 5
90 11 134 12 63 2 79 0 77 -11 -1 -7 4 -24 13 -38 16 -23 15 -26 -36 -84 -50
-58 -51 -60 -23 -53 48 12 254 9 332 -5 69 -12 72 -14 72 -41 0 -16 5 -32 11
-35 6 -4 8 -13 5 -21 -5 -12 -572 -685 -1113 -1321 -123 -144 -223 -266 -223
-270 0 -4 111 103 248 238 136 135 462 456 725 714 l478 468 33 -32 33 -32
-236 -233 c-130 -127 -461 -452 -736 -720 -275 -269 -531 -519 -568 -556 l-69
-67 71 -37 71 -37 -21 -40 c-15 -31 -24 -39 -38 -34 -13 4 -27 -4 -46 -27
l-28 -33 -52 57 -52 56 -26 -26 c-25 -25 -27 -25 -45 -8 -19 16 -20 16 -25 -4
-3 -12 -11 -18 -19 -15 -8 3 -36 -24 -72 -69 l-58 -75 -34 27 c-19 15 -34 31
-34 36 0 4 23 33 50 63 28 30 50 58 50 62 0 4 -31 32 -70 64 l-69 56 -53 -59
c-29 -33 -57 -60 -63 -60 -6 0 -24 14 -40 30 l-29 30 63 64 c44 44 61 68 55
77 -4 8 -23 38 -42 68 l-34 54 -53 -59 -53 -59 -31 29 c-17 17 -31 33 -31 37
0 3 29 37 63 74 l64 68 -24 76 c-14 42 -27 111 -30 154 l-6 78 -48 -47 -49
-48 -30 29 c-16 16 -30 33 -30 38 0 6 35 43 78 82 l77 72 12 84 c7 46 15 95
19 109 5 21 -2 17 -38 -22 l-43 -48 -34 31 -33 31 29 31 c16 18 65 71 110 118
62 66 91 107 122 172 121 253 344 494 601 649 42 25 99 69 127 99 l52 54 21
-21 21 -21 81 29 c86 30 225 58 292 58 23 0 51 7 62 15 25 19 24 19 54 -10z
m828 -2301 l82 -6 0 -169 c0 -169 0 -169 23 -169 26 0 42 -9 51 -30 4 -10 5
-8 3 5 -4 18 1 21 32 19 20 -1 55 -3 79 -3 23 -1 42 -4 42 -9 0 -4 -20 -7 -45
-7 -25 0 -45 5 -45 10 0 6 -4 4 -9 -3 -11 -17 -21 -17 -33 0 -8 11 -9 11 -6 0
2 -8 7 -13 12 -12 5 1 13 -4 17 -12 7 -11 9 -11 9 1 0 11 3 11 17 0 11 -10 14
-10 9 -1 -4 6 -2 12 3 12 6 0 11 -6 12 -12 0 -10 2 -10 6 0 2 6 9 12 14 12 6
0 7 -5 3 -12 -4 -7 -3 -8 4 -4 7 4 12 1 13 -6 0 -10 2 -10 6 0 2 6 10 9 16 5
24 -15 34 -10 29 15 -3 17 -1 23 7 18 6 -4 9 -11 7 -15 -3 -4 -1 -13 3 -20 6
-10 10 -9 14 4 5 10 3 14 -5 9 -6 -4 -8 -3 -5 3 11 17 60 9 68 -12 7 -18 8
-18 8 -2 1 14 5 16 20 7 11 -5 51 -10 89 -10 38 0 93 -4 123 -9 122 -21 328
-42 564 -57 138 -9 276 -19 308 -23 57 -7 59 -6 73 21 8 15 16 28 19 28 6 0
-73 -162 -88 -180 -6 -8 -20 -31 -29 -50 -38 -75 -98 -168 -134 -204 -10 -10
-32 -66 -38 -99 -2 -7 -6 -19 -9 -27 -18 -49 -28 -93 -23 -106 3 -8 2 -13 -3
-10 -11 7 -45 -129 -37 -150 4 -9 2 -13 -6 -8 -7 5 -9 -1 -6 -19 3 -15 2 -24
-2 -22 -6 3 -16 -38 -35 -144 -8 -44 -24 -48 -51 -14 -25 33 -85 60 -105 47
-8 -5 -9 -3 -4 6 6 10 0 12 -23 8 -17 -2 -29 -1 -26 4 3 4 -65 8 -151 8 -86 0
-154 -4 -151 -9 3 -4 -6 -6 -21 -3 -16 3 -24 1 -20 -5 4 -6 -4 -8 -20 -5 -15
3 -23 1 -20 -4 7 -12 -6 -14 -140 -17 -61 -2 -110 1 -107 5 6 9 -273 11 -328
2 -21 -4 -35 -10 -32 -15 3 -5 -1 -6 -9 -3 -19 7 -90 -23 -83 -35 4 -5 1 -13
-5 -17 -8 -4 -9 -3 -5 4 4 7 2 12 -3 12 -10 0 -15 -17 -14 -47 1 -7 -2 -13 -6
-13 -4 0 -8 -6 -9 -12 0 -7 -6 -44 -11 -83 -6 -38 -10 -78 -11 -88 0 -13 -25
3 -92 58 -119 96 -208 156 -221 148 -5 -3 -7 -1 -4 4 8 13 -20 26 -35 16 -6
-3 -8 -1 -5 4 8 13 -20 26 -35 16 -7 -3 -8 -1 -4 5 7 11 -6 17 -27 13 -5 -1
-6 3 -3 8 7 11 -52 33 -67 24 -6 -4 -7 -1 -2 7 6 10 3 12 -13 8 -12 -4 -20 -3
-17 2 3 4 -34 15 -83 24 -133 24 -492 21 -476 -5 3 -5 -2 -6 -11 -3 -20 8
-147 -25 -140 -36 3 -5 -5 -6 -17 -2 -16 4 -19 2 -13 -8 5 -8 4 -11 -2 -7 -13
8 -94 -23 -87 -34 3 -5 -3 -6 -12 -2 -12 4 -15 3 -10 -6 4 -6 4 -10 -1 -9 -17
4 -53 -14 -47 -24 4 -6 3 -8 -3 -5 -14 9 -55 -22 -47 -35 4 -7 2 -8 -4 -4 -7
4 -22 0 -34 -8 -12 -9 -18 -16 -13 -16 6 0 2 -5 -8 -11 -9 -6 -15 -15 -11 -20
3 -5 0 -8 -8 -7 -7 2 -12 -2 -11 -9 2 -8 -4 -10 -14 -6 -11 4 -14 3 -9 -5 4
-7 1 -12 -8 -12 -9 0 -16 -5 -16 -11 0 -5 6 -7 13 -3 7 4 9 3 4 -2 -5 -5 -14
-9 -20 -9 -7 -1 -11 -7 -9 -14 1 -7 -2 -10 -7 -7 -13 8 -34 -21 -25 -35 4 -7
3 -9 -4 -5 -6 3 -19 -4 -29 -17 -33 -42 -39 -40 -84 36 -86 144 -145 220 -162
210 -6 -3 -7 -1 -4 4 8 14 -100 86 -115 77 -7 -5 -8 -2 -3 6 6 10 4 12 -9 7
-10 -4 -15 -3 -11 3 3 6 0 10 -7 10 -7 0 -19 9 -26 20 -10 16 -10 20 0 18 7
-2 12 3 10 10 -1 8 2 11 7 8 9 -6 68 64 63 77 -1 4 4 6 10 5 7 -2 12 3 10 10
-1 6 4 11 10 10 7 -2 12 3 10 10 -1 6 4 11 10 10 7 -2 12 3 10 10 -1 6 4 11
10 10 7 -2 12 2 11 9 -2 7 6 10 17 8 13 -3 17 1 13 11 -3 9 0 14 8 12 8 -2 13
3 11 10 -1 6 4 11 10 10 7 -2 12 3 10 10 -1 6 4 11 10 10 7 -2 12 3 10 10 -1
6 4 11 10 10 7 -2 12 3 10 9 -1 7 4 12 10 10 7 -1 12 4 11 10 -2 7 3 12 10 10
6 -1 11 4 10 10 -2 7 3 12 10 10 6 -1 11 4 10 10 -2 7 3 12 10 10 6 -1 11 4
10 10 -2 7 3 12 10 10 6 -1 11 4 9 11 -1 8 1 11 6 8 11 -6 43 30 34 39 -4 4 0
5 8 3 8 -2 14 3 13 9 -2 7 3 12 10 10 6 -1 11 4 10 10 -2 7 3 12 10 10 6 -1
11 4 10 10 -2 7 3 12 10 10 6 -1 11 4 10 10 -2 7 3 12 10 10 6 -1 11 4 10 10
-2 7 3 12 10 10 6 -1 11 4 10 10 -2 7 3 12 10 10 6 -1 11 4 10 10 -2 7 3 12
10 10 6 -1 11 4 10 10 -2 7 3 12 10 10 6 -1 11 3 10 10 -2 7 6 10 17 8 13 -3
17 1 13 11 -3 9 0 14 8 12 8 -2 13 3 12 9 -2 7 3 12 10 10 6 -1 11 4 10 10 -2
7 3 12 10 10 6 -1 11 4 10 10 -2 7 3 12 10 10 6 -1 11 4 10 10 -2 7 3 12 10
10 6 -1 11 4 9 11 -1 8 2 11 7 8 5 -4 13 0 18 8 4 8 13 15 18 16 6 1 9 6 8 11
-2 5 3 8 10 6 6 -1 11 4 10 10 -2 7 3 12 10 10 6 -1 11 4 10 10 -2 7 3 12 10
10 6 -1 11 4 10 10 -2 7 3 12 10 10 6 -1 11 4 10 11 -2 6 3 11 10 10 6 -2 11
2 10 9 -2 7 6 10 17 8 24 -5 25 4 5 31 -8 10 -15 28 -15 39 0 12 -8 37 -18 57
l-19 36 33 38 c58 70 138 150 169 170 30 19 30 19 15 -1 -14 -18 -13 -19 1 -8
9 7 19 10 22 6 4 -3 10 2 13 12 4 10 1 21 -7 26 -9 6 -10 9 -2 9 6 0 15 -5 18
-10 4 -6 12 -7 18 -3 9 5 9 3 2 -8 -5 -8 -3 -7 6 3 20 21 34 11 17 -12 -7 -9
-1 -3 14 12 29 29 45 37 32 16 -5 -9 -2 -9 9 1 9 7 17 10 17 7 0 -4 6 -4 13 1
6 4 20 6 31 4 16 -2 16 -1 5 12 -9 9 -18 12 -25 6 -6 -5 -15 -5 -19 -1 -5 4
-5 2 -2 -4 3 -6 0 -11 -7 -11 -11 0 -12 4 -3 19 7 10 13 14 15 8 2 -6 8 -8 12
-5 5 3 7 12 4 19 -7 18 12 30 22 15 4 -8 3 -9 -4 -5 -7 4 -12 3 -12 -3 0 -19
19 -21 29 -4 6 10 11 13 11 8 0 -6 -5 -16 -12 -23 -16 -16 4 -16 21 1 11 10
13 10 7 0 -11 -21 3 -15 32 12 15 14 33 25 40 25 7 0 11 4 8 9 -3 4 5 6 17 4
13 -3 28 1 34 9 9 10 80 13 365 11 194 -2 390 -6 436 -9z m-6463 -2078 c18 -8
37 -11 41 -8 4 4 4 1 0 -5 -6 -12 0 -15 21 -12 3 0 10 -6 15 -15 5 -9 14 -14
19 -10 5 3 8 0 7 -7 -2 -7 3 -13 9 -14 7 0 20 -10 28 -23 9 -12 21 -19 27 -16
7 4 8 2 4 -5 -9 -14 12 -43 25 -35 5 3 6 -3 2 -12 -4 -12 -3 -15 6 -10 6 4 11
4 10 -1 -4 -14 13 -63 20 -59 14 9 9 -169 -6 -197 -7 -15 -11 -33 -7 -39 4 -7
3 -8 -4 -4 -13 8 -35 -28 -24 -39 4 -5 2 -5 -4 -2 -14 8 -38 -18 -29 -32 4 -7
-1 -8 -11 -4 -12 4 -15 3 -10 -5 4 -7 1 -12 -8 -12 -9 0 -16 -5 -16 -11 0 -5
5 -7 12 -3 7 4 8 3 4 -5 -4 -6 -12 -9 -17 -5 -13 7 -51 -25 -43 -37 3 -5 -1
-6 -9 -3 -8 3 -18 0 -23 -7 -5 -8 -3 -10 6 -4 9 5 11 4 6 -4 -4 -6 -11 -9 -16
-6 -12 7 -41 -5 -35 -15 3 -4 -37 -7 -88 -6 -88 1 -95 3 -147 36 -30 19 -58
34 -62 32 -5 -1 -7 1 -6 5 1 5 -10 21 -25 37 -15 16 -43 58 -63 93 -44 80 -54
155 -29 223 9 25 17 50 17 57 1 7 5 10 9 8 4 -3 14 10 23 29 21 46 97 113 159
142 61 28 157 33 212 10z m8335 -175 c0 -6 13 -6 31 1 23 8 49 7 99 -2 53 -10
91 -10 176 -1 108 11 746 16 756 6 3 -3 -7 -55 -23 -116 -60 -237 -75 -402
-41 -469 15 -31 22 -35 61 -38 33 -3 59 4 105 27 61 31 195 127 273 198 l42
38 22 160 c12 88 25 170 30 183 l9 22 275 0 c310 0 289 7 254 -82 -11 -29 -72
-197 -135 -373 -129 -360 -152 -413 -197 -451 -28 -23 -37 -26 -94 -22 -53 3
-68 9 -94 33 -40 39 -58 74 -73 145 l-11 58 -65 -43 c-122 -81 -310 -164 -422
-186 -88 -17 -207 -7 -265 22 -130 67 -159 220 -103 539 12 67 20 123 18 125
-2 2 -26 -3 -53 -11 -91 -28 -229 -54 -323 -60 -51 -4 -95 -11 -98 -15 -2 -5
9 -36 26 -69 97 -193 160 -411 161 -560 2 -257 -84 -572 -202 -741 -43 -61
-142 -144 -184 -155 -13 -3 -77 -4 -143 -2 l-119 3 -48 39 c-94 78 -162 225
-201 433 -25 137 -30 457 -9 713 20 256 61 635 70 650 8 13 495 14 495 1z
m2475 -34 c41 -118 129 -122 341 -16 91 45 130 60 155 57 33 -3 33 -3 31 -53
l-3 -50 48 53 48 53 285 -3 284 -3 19 -60 c36 -116 57 -231 63 -346 l7 -116
231 116 c226 113 231 117 230 146 0 17 -5 83 -9 148 l-8 117 179 -2 179 -3 0
-200 c0 -188 1 -203 23 -250 30 -65 55 -91 108 -111 61 -23 141 -15 239 25
141 57 339 187 458 299 l57 55 0 -200 0 -199 -197 -111 c-253 -142 -303 -167
-416 -204 -79 -27 -102 -31 -168 -27 -145 9 -250 90 -330 253 l-40 83 -67 -46
c-157 -106 -481 -238 -677 -276 -249 -49 -440 -40 -574 27 -82 41 -161 157
-161 235 0 12 -10 13 -47 9 -59 -8 -123 6 -141 30 -8 11 -12 38 -10 74 l3 57
-100 4 c-116 5 -155 20 -223 89 -56 56 -96 141 -122 257 -32 146 -46 133 136
130 l156 -3 13 -38z m-12865 -502 l0 -445 -180 0 -180 0 0 445 0 445 180 0
180 0 0 -445z m1470 372 c0 -233 182 -461 417 -522 178 -46 375 4 514 132 119
110 177 232 182 381 l2 82 159 0 159 0 -7 -92 c-3 -50 -6 -250 -6 -445 l0
-353 -175 0 -175 0 -2 165 -3 164 -55 -70 c-108 -139 -255 -241 -406 -279 -94
-24 -260 -27 -351 -5 -176 41 -357 172 -473 340 -87 127 -144 300 -156 477
l-7 98 192 0 191 0 0 -73z m2072 11 c2 -35 2 -235 0 -445 l-2 -383 -175 0
-175 0 0 445 0 445 175 0 174 0 3 -62z m1148 -383 l0 -445 -180 0 -180 0 0
445 0 445 180 0 180 0 0 -445z m1000 0 l0 -445 -175 2 -175 3 -1 435 c-1 239
-1 438 0 443 1 4 80 7 176 7 l175 0 0 -445z m2964 394 c4 -28 4 -54 1 -58 -4
-3 -326 -4 -716 -3 l-709 4 0 -29 c0 -37 28 -121 65 -193 36 -70 134 -167 210
-207 241 -126 519 -89 718 97 41 39 78 70 81 70 15 0 246 -182 246 -193 0 -22
-151 -166 -226 -216 -93 -62 -206 -109 -324 -133 -78 -16 -122 -19 -250 -15
-134 3 -167 8 -240 31 -362 117 -610 455 -610 832 l0 64 874 0 873 0 7 -51z
m-897 -338 c-1 -12 -6 -17 -16 -13 -9 3 -12 1 -7 -6 5 -8 1 -10 -10 -5 -13 5
-15 3 -9 -7 5 -8 4 -11 -2 -7 -6 4 -27 0 -47 -8 -57 -24 -165 -20 -231 9 -30
14 -55 30 -55 36 0 6 -4 8 -10 5 -5 -3 -10 -1 -10 4 0 8 66 11 199 11 190 0
200 -1 198 -19z"/>
<path d="M8290 6640 c-47 -10 -96 -23 -110 -28 -14 -6 -83 -70 -155 -142 -93
-94 -118 -125 -89 -107 76 47 200 105 290 137 83 29 94 36 148 96 56 63 57 64
29 63 -15 0 -66 -9 -113 -19z"/>
<path d="M7970 6639 c-19 -5 -88 -28 -153 -51 -139 -50 -90 -5 -546 -498
l-301 -325 -29 -90 c-16 -49 -33 -108 -37 -130 l-7 -40 119 112 c158 148 166
157 199 236 119 288 415 596 723 753 88 45 92 49 32 33z"/>
<path d="M7825 6438 c-174 -118 -358 -309 -450 -468 -5 -8 113 104 263 250
150 145 272 266 272 267 0 7 -13 0 -85 -49z"/>
<path d="M8565 6484 c-16 -2 -67 -9 -113 -15 l-82 -11 -233 -251 c-127 -138
-368 -397 -533 -575 -300 -323 -302 -325 -308 -376 -9 -77 -7 -186 3 -186 5 0
18 11 28 24 11 13 293 309 629 657 335 349 631 658 658 687 l49 52 -34 -1
c-19 -1 -47 -4 -64 -5z"/>
<path d="M8099 5768 c-376 -391 -708 -737 -736 -769 l-53 -57 21 -69 c17 -54
55 -135 76 -162 2 -3 19 10 37 28 l34 33 -30 27 -30 26 88 105 c168 201 690
817 969 1144 154 181 292 344 307 362 21 24 24 33 14 37 -8 3 -268 -259 -697
-705z"/>
<path d="M8088 6347 c-306 -157 -551 -416 -691 -730 -26 -60 -47 -111 -44
-113 2 -2 163 168 358 378 195 210 380 411 413 445 32 35 56 63 53 63 -4 0
-43 -19 -89 -43z"/>
<path d="M7357 5822 c-99 -99 -109 -113 -127 -172 -30 -98 -65 -340 -50 -340
18 0 46 61 67 146 33 137 102 287 204 442 11 17 19 32 17 32 -2 0 -52 -49
-111 -108z"/>
<path d="M6993 5468 l-117 -116 12 -109 c7 -59 17 -130 23 -158 l12 -50 86 91
86 91 1 119 c0 66 6 145 13 177 7 32 10 61 7 64 -3 4 -59 -46 -123 -109z"/>
<path d="M7038 5025 c-38 -41 -68 -80 -68 -87 0 -21 64 -123 77 -123 6 0 37
28 67 62 l56 61 -27 81 c-14 45 -29 81 -32 80 -3 -1 -36 -34 -73 -74z"/>
<path d="M7166 4799 l-61 -61 53 -48 c29 -26 73 -58 97 -70 43 -22 46 -22 65
-5 19 17 19 18 -5 66 -14 26 -38 70 -55 96 -18 28 -28 54 -24 65 9 30 -7 21
-70 -43z"/>
<path d="M10761 1898 c-28 -165 -36 -308 -36 -633 1 -278 4 -357 18 -433 20
-111 29 -130 63 -138 55 -14 114 64 141 188 26 118 23 419 -5 583 -46 265
-118 495 -155 495 -10 0 -18 -19 -26 -62z"/>
<path d="M14105 1877 l-198 -194 39 -35 c110 -100 144 -118 214 -118 127 0
200 89 200 244 0 50 -24 191 -43 254 l-13 43 -199 -194z"/>
</g>
</svg>
